<svg width="70" height="70" viewBox="0 0 70 70" fill="none" xmlns="http://www.w3.org/2000/svg">
<path d="M34.3292 32.7833H29.0383V23.9225H35.315C38.7275 23.9225 40.6642 25.445 40.6642 28.1983C40.6642 31.1383 38.4096 32.7833 34.3233 32.7833H34.3292ZM35.2742 36.3008H29.0413V46.0658H35.5483C39.8037 46.0658 42.0583 44.3596 42.0583 41.1512C42.0583 37.9429 39.7396 36.3008 35.2742 36.3008ZM70 33.2208V36.7733C66.71 37.0883 64.7004 39.5266 63.5075 43.3883C62.3204 47.2354 62.1571 51.9546 62.2825 55.5975C62.4138 59.3891 59.4592 62.8891 55.4663 62.8891H14.5396C10.5438 62.8891 7.58917 59.3891 7.72333 55.5975C7.84875 51.9546 7.68542 47.2354 6.49833 43.3883C5.3025 39.5266 3.29 37.0883 0 36.7733V33.2208C3.29 32.9058 5.30542 30.4675 6.49542 26.6058C7.68542 22.7587 7.84875 18.0396 7.72042 14.3966C7.58917 10.605 10.5438 7.10498 14.5396 7.10498H55.4663C59.4621 7.10498 62.4138 10.605 62.2825 14.3966C62.1571 18.0396 62.3204 22.7587 63.5075 26.6058C64.7004 30.4675 66.71 32.9058 70 33.2208ZM46.8796 41.4371C46.8796 37.4879 44.1 34.6325 39.9729 34.1804V34.0141C43.0063 33.5212 45.3862 30.7037 45.3862 27.5596C45.3862 23.0766 41.8483 20.1571 36.4554 20.1571H24.3221V49.8254H36.5167C42.9858 49.8254 46.8796 46.6579 46.8796 41.4371Z" fill="#7952B3"/>
</svg>
