<svg width="70" height="70" viewBox="0 0 70 70" fill="none" xmlns="http://www.w3.org/2000/svg">
<path d="M41.5042 35.0117C41.5042 36.7408 40.8175 38.3992 39.595 39.6222C38.3726 40.8451 36.7146 41.5326 34.9854 41.5334C33.2558 41.5334 31.597 40.8463 30.3739 39.6232C29.1509 38.4002 28.4638 36.7413 28.4638 35.0117C28.4638 33.2825 29.1505 31.6242 30.3729 30.4012C31.5953 29.1782 33.2534 28.4908 34.9825 28.49C36.7122 28.49 38.371 29.1771 39.594 30.4002C40.8171 31.6232 41.5042 33.282 41.5042 35.0117ZM49.2275 3.83252C45.3017 3.83252 40.1654 6.63252 34.9708 11.48C29.7792 6.65877 24.64 3.89085 20.7171 3.89085C19.5213 3.89085 18.4333 4.1621 17.4913 4.70169C13.4808 7.0146 12.5825 14.2217 14.6533 23.2663C5.775 26.0079 0 30.3917 0 35.0117C0 39.6492 5.80417 44.0446 14.7088 46.7659C12.6554 55.8454 13.5713 63.0642 17.5904 65.3742C18.5238 65.9196 19.6029 66.1763 20.8046 66.1763C24.7275 66.1763 29.8667 63.3763 35.0613 58.5229C40.2529 63.3471 45.3921 66.115 49.315 66.115C50.5108 66.115 51.5988 65.8525 52.5408 65.3129C56.5483 63.0029 57.4496 55.7959 55.3787 46.7484C64.225 44.03 70 39.6375 70 35.0117C70 30.3742 64.1958 25.9788 55.2913 23.2517C57.3446 14.1809 56.4288 6.95627 52.4096 4.64335C51.4821 4.10669 50.4058 3.83544 49.2275 3.83252ZM49.2129 7.01169V7.02919C49.8692 7.02919 50.3971 7.15752 50.8404 7.3996C52.7829 8.51377 53.6258 12.7517 52.9696 18.2029C52.8121 19.5446 52.5554 20.9592 52.2404 22.4029C49.4404 21.7146 46.3896 21.1867 43.1783 20.8454C41.2533 18.2059 39.2554 15.8084 37.2429 13.7084C41.8862 9.39169 46.2467 7.02335 49.2158 7.0146L49.2129 7.01169ZM20.7171 7.07002C23.6688 7.07002 28.0496 9.42669 32.7046 13.72C30.7038 15.82 28.7087 18.2029 26.8129 20.8425C23.5842 21.1838 20.5304 21.7117 17.7333 22.4117C17.4067 20.9825 17.1646 19.6 16.9925 18.27C16.3217 12.8217 17.15 8.58669 19.075 7.45794C19.6292 7.19544 20.2417 7.0846 20.7171 7.07002ZM34.9562 15.9659C36.2833 17.3309 37.6104 18.8592 38.9229 20.5275C37.6396 20.4692 36.3271 20.4284 35 20.4284C33.6583 20.4284 32.3313 20.4575 31.0333 20.5275C32.3167 18.8592 33.6437 17.3338 34.9562 15.9659ZM35 23.625C37.1583 23.625 39.3079 23.7242 41.4225 23.8963C42.6067 25.5938 43.7617 27.405 44.8729 29.3213C45.9579 31.1879 46.9438 33.0838 47.8421 34.9971C46.9438 36.9075 45.9579 38.8179 44.8875 40.6846C43.7792 42.6096 42.6329 44.4413 41.4458 46.1388C39.3225 46.3225 37.17 46.4246 35 46.4246C32.8417 46.4246 30.6921 46.3225 28.5775 46.1534C27.3933 44.4559 26.2383 42.6417 25.1271 40.7284C24.0421 38.8617 23.0563 36.9659 22.1579 35.0525C23.0417 33.1363 24.0421 31.2229 25.1125 29.3534C26.2208 27.4284 27.3671 25.6025 28.5542 23.905C30.6775 23.7184 32.83 23.6192 35 23.6192V23.625ZM24.3979 24.3659C23.6979 25.4654 22.9979 26.5913 22.3446 27.7492C21.6883 28.8867 21.0758 30.03 20.4925 31.1734C19.7196 29.26 19.0633 27.3525 18.5208 25.4946C20.3875 25.0571 22.3563 24.6663 24.3979 24.3659ZM45.5729 24.3659C47.6 24.6663 49.5542 25.0367 51.4238 25.4946C50.8988 27.3379 50.2425 29.2338 49.4988 31.1325C48.9154 29.995 48.3029 28.8488 47.6321 27.7084C46.9758 26.565 46.2758 25.4509 45.5758 24.3659H45.5729ZM54.5067 26.3346C55.9183 26.7721 57.26 27.2592 58.5171 27.7871C63.5688 29.9454 66.8354 32.7688 66.8354 35.0088C66.8208 37.2488 63.5542 40.0838 58.5025 42.2275C57.2775 42.7525 55.9358 43.225 54.5504 43.6654C53.7337 40.8713 52.6663 37.9604 51.3421 34.9738C52.6546 32.0075 53.7046 29.1113 54.5067 26.3288V26.3346ZM15.4379 26.3463C16.2488 29.1463 17.3192 32.0542 18.6463 35.0379C17.3338 38.0042 16.2779 40.9004 15.4788 43.6829C14.0671 43.2454 12.7254 42.7554 11.4829 42.2246C6.43125 40.075 3.16458 37.2488 3.16458 35.0088C3.16458 32.7688 6.43125 29.9279 11.4829 27.7871C12.7079 27.2621 14.0496 26.7896 15.4379 26.3463ZM49.4988 38.8296C50.2717 40.7459 50.9279 42.6563 51.4704 44.5113C49.6037 44.9692 47.6321 45.3571 45.5904 45.6488C46.2904 44.555 46.9904 43.4263 47.6467 42.2713C48.3029 41.1338 48.9125 39.9729 49.4988 38.8296ZM20.4925 38.8879C21.0758 40.0313 21.6883 41.1717 22.3592 42.315C23.03 43.4525 23.7154 44.5667 24.4154 45.6488C22.3883 45.3513 20.4342 44.9779 18.5646 44.5229C19.0896 42.6854 19.7488 40.7838 20.4896 38.885L20.4925 38.8879ZM52.2667 47.6C52.5933 49.0379 52.85 50.4234 53.0075 51.7504C53.6783 57.1988 52.85 61.4338 50.925 62.5654C50.4963 62.8279 49.9392 62.9388 49.2829 62.9388C46.3312 62.9388 41.9504 60.585 37.2954 56.2888C39.2962 54.1888 41.2913 51.8088 43.1871 49.1721C46.4158 48.8279 49.4696 48.3 52.2667 47.6ZM17.7625 47.6292C20.5625 48.3117 23.6133 48.8396 26.8246 49.1809C28.7496 51.8204 30.7475 54.2179 32.76 56.315C28.1079 60.6404 23.7417 63.0088 20.7725 63.0088C20.1308 62.9942 19.5883 62.8629 19.1596 62.6238C17.2171 61.5154 16.3742 57.2746 17.0304 51.8234C17.1879 50.4817 17.4475 49.07 17.7625 47.6292ZM31.0625 49.4959C32.3458 49.5542 33.6583 49.595 34.9854 49.595C36.3271 49.595 37.6542 49.5659 38.9521 49.4959C37.6688 51.1642 36.3417 52.6896 35.0292 54.0604C33.7021 52.6896 32.375 51.1642 31.0625 49.4959Z" fill="#61DAFB"/>
</svg>
